<svg width="34" height="34" viewBox="0 0 34 34" fill="none" xmlns="http://www.w3.org/2000/svg">
<path opacity="0.1" fill-rule="evenodd" clip-rule="evenodd" d="M17 33C25.8366 33 33 25.8366 33 17C33 8.16344 25.8366 1 17 1C8.16344 1 1 8.16344 1 17C1 25.8366 8.16344 33 17 33Z" stroke="white" stroke-width="1.5"/>
<path d="M19.3073 12.3333H21.6149C21.8272 12.3333 21.9995 12.2027 21.9995 12.0417V10.2917C21.9995 10.1307 21.8272 10 21.6149 10H19.3073C16.9751 10 15.0768 11.4391 15.0768 13.2083V15.25H12.3846C12.1723 15.25 12 15.3807 12 15.5417V17.2917C12 17.4527 12.1723 17.5833 12.3846 17.5833H15.0768V23.7083C15.0768 23.8693 15.2491 24 15.4614 24H17.7689C17.9812 24 18.1535 23.8693 18.1535 23.7083V17.5833H20.8457C21.0111 17.5833 21.158 17.5028 21.2111 17.3838L21.9803 15.6338C22.0195 15.5452 21.9995 15.4472 21.9272 15.3707C21.8541 15.2949 21.7387 15.25 21.6149 15.25H18.1535V13.2083C18.1535 12.7259 18.6712 12.3333 19.3073 12.3333Z" fill="white"/>
</svg>
