<svg width="32" height="32" viewBox="0 0 32 32" fill="none" xmlns="http://www.w3.org/2000/svg">
<rect x="0.75" y="0.75" width="30.5" height="30.5" rx="15.25" stroke="white" stroke-opacity="0.1" stroke-width="1.5"/>
<path d="M18.3073 11.3333H20.6149C20.8272 11.3333 20.9995 11.2027 20.9995 11.0417V9.29167C20.9995 9.13067 20.8272 9 20.6149 9H18.3073C15.9751 9 14.0768 10.4391 14.0768 12.2083V14.25H11.3846C11.1723 14.25 11 14.3807 11 14.5417V16.2917C11 16.4527 11.1723 16.5833 11.3846 16.5833H14.0768V22.7083C14.0768 22.8693 14.2491 23 14.4614 23H16.7689C16.9812 23 17.1535 22.8693 17.1535 22.7083V16.5833H19.8457C20.0111 16.5833 20.158 16.5028 20.2111 16.3838L20.9803 14.6338C21.0195 14.5452 20.9995 14.4472 20.9272 14.3707C20.8541 14.2949 20.7387 14.25 20.6149 14.25H17.1535V12.2083C17.1535 11.7259 17.6712 11.3333 18.3073 11.3333Z" fill="white"/>
</svg>
