<svg width="64" height="36" viewBox="0 0 64 36" fill="none" xmlns="http://www.w3.org/2000/svg">
<g clip-path="url(#clip0_1136_88)">
<path fill-rule="evenodd" clip-rule="evenodd" d="M15.9918 0.115194C7.79455 1.07487 1.23114 7.5313 0.161552 15.6874C-0.628756 21.714 1.68607 27.8142 6.20809 31.6213C8.99799 33.97 12.1412 35.371 15.6655 35.8364C21.3718 36.59 27.1047 34.6461 31.1274 30.5938C32.4687 29.2426 33.4714 27.8412 34.3235 26.1273C35.5524 23.6555 35.9897 21.8497 36.2261 18.2727C36.3913 15.7748 36.5344 15.0461 37.1388 13.626C38.3754 10.7208 40.78 8.60356 43.6953 7.85323C44.8833 7.54745 46.7577 7.54472 48.0208 7.8469C51.8007 8.75127 54.728 12.0616 55.3914 16.1822C56.2798 21.7005 53.042 26.9517 48.0086 28.1559C46.7387 28.4598 44.8917 28.4561 43.6953 28.1474C41.1381 27.4874 39.0009 25.8156 37.6406 23.411L37.1831 22.6022L36.8331 23.678C36.1457 25.7907 34.7465 28.2694 33.3938 29.7707L32.7648 30.4686L33.6101 31.2719C34.6425 32.253 36.5198 33.5286 37.9018 34.188C44.8696 37.5126 53.1336 36.1778 58.6682 30.8338C61.5634 28.0382 63.539 23.9994 63.8553 20.2294C63.8931 19.7792 63.9654 19.3851 64.0161 19.3536C64.0667 19.322 64.1082 18.658 64.1082 17.878C64.1082 17.098 64.0664 16.4859 64.0151 16.5178C63.964 16.5495 63.8898 16.1853 63.8504 15.7083C63.7587 14.6009 63.2685 12.6432 62.7543 11.3317C61.8479 9.01919 60.659 7.20654 58.8609 5.39519C54.837 1.34192 49.1742 -0.586261 43.4963 0.16363C35.8978 1.16705 29.7804 6.82734 28.1585 14.3555C28.0156 15.0184 27.8859 16.1745 27.823 17.3454C27.7094 19.4588 27.6028 20.2239 27.2769 21.2649C26.1874 24.7446 23.6023 27.2963 20.3044 28.1474C19.108 28.4561 17.261 28.4598 15.9911 28.1559C10.9577 26.9517 7.71994 21.7005 8.60836 16.1822C9.27273 12.0562 12.194 8.75247 15.979 7.8469C17.2421 7.54472 19.1165 7.54745 20.3044 7.85323C22.3254 8.37338 24.183 9.59432 25.4579 11.2406C26.0026 11.9439 26.0505 11.9799 26.1379 11.7531C26.1896 11.6189 26.5424 10.8709 26.9221 10.0909C27.6967 8.49905 28.6236 7.13716 29.8296 5.81836L30.6443 4.92752L30.0849 4.4209C28.6375 3.10996 26.0004 1.62425 23.8849 0.927921C21.4275 0.119121 18.5177 -0.180551 15.9918 0.115194ZM0.0423239 18C0.0423239 18.81 0.0593256 19.1414 0.0802258 18.7364C0.101018 18.3313 0.101018 17.6687 0.0802258 17.2636C0.0593256 16.8586 0.0423239 17.19 0.0423239 18Z" fill="white"/>
</g>
<defs>
<clipPath id="clip0_1136_88">
<rect width="64" height="36" fill="white"/>
</clipPath>
</defs>
</svg>
