<svg width="40" height="40" viewBox="0 0 40 40" fill="none" xmlns="http://www.w3.org/2000/svg">
<g clip-path="url(#clip0_762_182)">
<path d="M0 3.33333C0 1.49238 1.49238 0 3.33333 0H36.6667C38.5076 0 40 1.49238 40 3.33333V36.6667C40 38.5076 38.5076 40 36.6667 40H3.33333C1.49238 40 0 38.5076 0 36.6667V3.33333Z" fill="#6C63FF" fill-opacity="0.1"/>
<path d="M37.7782 37.7777H5.38315C4.27688 37.7777 3.72373 37.7777 3.30119 37.5624C2.92952 37.373 2.62734 37.071 2.43795 36.6992C2.22266 36.2767 2.22266 35.7236 2.22266 34.6172V2.22217M37.7782 25.9259L27.0438 15.1914C26.6527 14.8003 26.4571 14.6047 26.2315 14.5315C26.0332 14.467 25.8195 14.467 25.6212 14.5315C25.3956 14.6047 25.2 14.8003 24.8089 15.1914L21.1179 18.8825C20.7268 19.2736 20.5312 19.4692 20.3056 19.5425C20.1073 19.6071 19.8936 19.6071 19.6952 19.5425C19.4697 19.4692 19.2741 19.2736 18.883 18.8825L10.1239 10.1234M37.7782 25.9259H29.877M37.7782 25.9259V18.0246" stroke="#6C63FF" stroke-width="2.96296" stroke-linecap="round" stroke-linejoin="round"/>
</g>
<defs>
<clipPath id="clip0_762_182">
<path d="M0 3.33333C0 1.49238 1.49238 0 3.33333 0H36.6667C38.5076 0 40 1.49238 40 3.33333V36.6667C40 38.5076 38.5076 40 36.6667 40H3.33333C1.49238 40 0 38.5076 0 36.6667V3.33333Z" fill="white"/>
</clipPath>
</defs>
</svg>
