<svg width="40" height="40" viewBox="0 0 40 40" fill="none" xmlns="http://www.w3.org/2000/svg">
<path d="M0 3.33333C0 1.49238 1.49238 0 3.33333 0H36.6667C38.5076 0 40 1.49238 40 3.33333V36.6667C40 38.5076 38.5076 40 36.6667 40H3.33333C1.49238 40 0 38.5076 0 36.6667V3.33333Z" fill="#6C63FF" fill-opacity="0.1"/>
<path d="M31.1747 2.22217L15.3135 7.78048H5.99816V10.4273H2.22168V22.7791H2.85109H5.99816V25.4259H6.62758H8.26406L9.96347 37.7777H10.467H14.5582L12.8588 25.4259H15.2506L31.0488 30.9842V29.8373V22.7791H33.1259V10.4273H31.0488V2.22217H31.1747ZM5.99816 21.0146H3.48051V12.1918H5.99816V21.0146ZM13.1105 36.0132H11.0335L9.58583 25.4259H11.6629L13.1105 36.0132ZM14.81 23.6614H12.67H8.01229H7.19405V22.7791V10.4273V9.54502H14.747V23.6614H14.81ZM29.9159 10.4273V22.7791V28.6903L16.0688 23.8378V9.36857L29.9159 4.51608V10.4273ZM31.93 12.1918V21.0146H31.1118V12.1918H31.93Z" fill="#6C63FF"/>
<path d="M37.6569 15.7207H34.6357V17.4852H37.6569V15.7207Z" fill="#6C63FF"/>
<path d="M37.2626 8.69542L34.3906 10.4988L34.9052 12.1091L37.7773 10.3057L37.2626 8.69542Z" fill="#6C63FF"/>
<path d="M34.8476 21.1162L34.333 22.7266L37.205 24.53L37.7196 22.9196L34.8476 21.1162Z" fill="#6C63FF"/>
</svg>
