<svg width="40" height="40" viewBox="0 0 40 40" fill="none" xmlns="http://www.w3.org/2000/svg">
<rect width="40" height="40" rx="3.33333" fill="#6C63FF" fill-opacity="0.1"/>
<path d="M30.2666 21.2832C30.2666 21.1132 30.1992 20.9496 30.0786 20.8296L29.8906 20.6416L30.0786 20.4536C30.1992 20.3336 30.2666 20.17 30.2666 19.9999V17.699L37.7782 10.1874L36.8709 9.28015L32.8331 13.318L26.6824 7.16725L30.7202 3.12944L29.813 2.22217L22.3013 9.73379H20.0004C19.8304 9.73379 19.6668 9.80116 19.5468 9.92179L19.3588 10.1098L19.1708 9.92179L18.9276 9.67861L16.6043 7.35525C16.4843 7.23462 16.3207 7.16725 16.1506 7.16725H15.133L10.1879 2.22217L9.28064 3.12944L10.7519 4.60071L4.6012 10.7514L3.12993 9.28015L2.22266 10.1874L7.16774 15.1325V18.7167C7.16774 18.8867 7.23511 19.0503 7.35574 19.1703L9.09264 20.9072V22.9425L2.22266 29.8125L3.12993 30.7197L6.5261 27.3236L12.6768 33.4743L9.28064 36.8705L10.1879 37.7777L17.0579 30.9077H19.3588C19.5288 30.9077 19.6925 30.8404 19.8124 30.7197L20.2661 30.2661H22.3013L29.813 37.7777L30.7202 36.8705L26.6824 32.8326L32.8331 26.6819L36.8709 30.7197L37.7782 29.8125L30.2666 22.3008V21.2832ZM25.7751 8.07452L31.9259 14.2252L29.625 16.5261L23.4742 10.3754L25.7751 8.07452ZM22.3013 11.0171L28.9833 17.699V19.7343L20.2661 11.0171H22.3013ZM28.9833 21.5489V22.3008L22.3013 28.9828H20.2661L16.7923 25.509V24.757L17.6219 25.5867L18.5292 24.6794L11.228 17.3782C11.0926 17.2422 11.0175 17.0619 11.0175 16.8694C11.0175 16.4729 11.3403 16.1501 11.7368 16.1501C11.9293 16.1501 12.1096 16.2252 12.2456 16.3606L16.9803 21.0952L17.8875 20.1879L13.1529 15.4533C13.0175 15.3173 12.9425 15.137 12.9425 14.9445C12.9425 14.548 13.2652 14.2252 13.6617 14.2252C13.8542 14.2252 14.0345 14.3003 14.1705 14.4357L18.9052 19.1703L19.8124 18.263L15.0778 13.5284C14.9424 13.3924 14.8674 13.2121 14.8674 13.0196C14.8674 12.6231 15.1901 12.3003 15.5866 12.3003C15.7791 12.3003 15.9594 12.3754 16.0954 12.5108L20.8301 17.2454L21.7373 16.3381L17.0027 11.6035C16.8673 11.4675 16.7923 11.2872 16.7923 11.0947C16.7923 10.6982 17.115 10.3754 17.5115 10.3754C17.704 10.3754 17.8843 10.4505 18.0203 10.5859L18.2635 10.8291L28.9833 21.5489ZM11.6592 5.50798L13.9601 7.80888L7.80937 13.9596L5.50847 11.6587L11.6592 5.50798ZM8.45101 15.1325L15.133 8.45052H15.885L16.7011 9.26668C16.021 9.56953 15.5436 10.2394 15.516 11.0241C14.4689 11.0613 13.6284 11.9019 13.5911 12.949C12.544 12.9862 11.7035 13.8268 11.6662 14.8739C10.5953 14.9118 9.73428 15.7895 9.73428 16.8694C9.73428 17.4045 9.94281 17.9076 10.3207 18.2855L10.7519 18.7167L9.73428 19.7343L8.45101 18.451V15.1325ZM13.5841 32.567L7.43337 26.4163L9.73428 24.1154L15.885 30.2661L13.5841 32.567ZM17.0579 29.6245L10.3759 22.9425V20.9072L11.6592 19.6239L15.509 23.4738V25.7747C15.509 25.9447 15.5764 26.1083 15.697 26.2283L19.0932 29.6245H17.0579ZM25.7751 31.9254L23.4742 29.6245L29.625 23.4738L31.9259 25.7747L25.7751 31.9254Z" fill="#6C63FF"/>
<path d="M29.1698 25.3209L27.8867 26.604L28.7941 27.5114L30.0772 26.2283L29.1698 25.3209Z" fill="#6C63FF"/>
<path d="M12.756 28.5291L11.8486 29.4365L13.1317 30.7196L14.0391 29.8122L12.756 28.5291Z" fill="#6C63FF"/>
<path d="M11.204 7.35536L9.9209 8.63843L10.8283 9.54583L12.1114 8.26276L11.204 7.35536Z" fill="#6C63FF"/>
<path d="M26.2277 9.92146L25.3203 10.8289L26.6034 12.1119L27.5108 11.2045L26.2277 9.92146Z" fill="#6C63FF"/>
</svg>
