<svg width="40" height="40" viewBox="0 0 40 40" fill="none" xmlns="http://www.w3.org/2000/svg">
<path d="M0 3.33354C0 1.49261 1.49237 0.000244141 3.3333 0.000244141H36.6666C38.5075 0.000244141 39.9998 1.49261 39.9998 3.33354V36.6665C39.9998 38.5075 38.5075 39.9998 36.6665 39.9998H3.3333C1.49237 39.9998 0 38.5075 0 36.6665V3.33354Z" fill="#6C63FF" fill-opacity="0.1"/>
<path fill-rule="evenodd" clip-rule="evenodd" d="M15.3104 4.95743C12.1815 4.95743 9.6451 7.49392 9.6451 10.6228C9.6451 13.7517 12.1815 16.2882 15.3104 16.2882C18.4393 16.2882 20.9755 13.7517 20.9755 10.6228C20.9755 7.49392 18.4393 4.95743 15.3104 4.95743ZM6.91016 10.6228C6.91016 5.98341 10.6711 2.22241 15.3104 2.22241C19.9496 2.22241 23.7106 5.98341 23.7106 10.6228C23.7106 15.2622 19.9496 19.0233 15.3104 19.0233C10.6711 19.0233 6.91016 15.2622 6.91016 10.6228Z" fill="#6C63FF"/>
<path fill-rule="evenodd" clip-rule="evenodd" d="M11.8428 26.0564C8.04022 26.0564 4.9576 29.139 4.9576 32.9418C4.9576 33.131 4.99024 33.2616 5.02302 33.3358C5.04942 33.3953 5.06889 33.4067 5.07751 33.4117C6.01547 33.963 8.71369 35.0428 15.3114 35.0428C21.9089 35.0428 24.6064 33.9633 25.5444 33.4122C25.5531 33.4071 25.5733 33.3953 25.5996 33.3358C25.6325 33.2616 25.6651 33.131 25.6651 32.9418C25.6651 29.139 22.5825 26.0564 18.7798 26.0564H11.8428ZM2.22266 32.9418C2.22266 27.6286 6.52975 23.3213 11.8428 23.3213H18.7798C24.0928 23.3213 28.4001 27.6286 28.4001 32.9418C28.4001 33.8568 28.0908 35.0879 26.9301 35.7701C25.4007 36.6691 22.1489 37.7779 15.3114 37.7779C8.47381 37.7779 5.22206 36.6691 3.69253 35.7701C2.53194 35.0879 2.22266 33.8568 2.22266 32.9418Z" fill="#6C63FF"/>
<path fill-rule="evenodd" clip-rule="evenodd" d="M26.2956 5.57771C26.4928 4.84861 27.2435 4.41731 27.9726 4.61436C30.989 5.42964 33.0856 8.4084 33.0856 11.7953C33.0856 15.3739 30.6329 18.6005 27.1929 19.0138C26.443 19.1038 25.7621 18.569 25.672 17.8192C25.5819 17.0693 26.1168 16.3883 26.8666 16.2983C28.7011 16.0779 30.3508 14.2358 30.3508 11.7953C30.3508 9.47975 28.9311 7.70656 27.259 7.25465C26.5299 7.05761 26.0987 6.3068 26.2956 5.57771Z" fill="#6C63FF"/>
<path fill-rule="evenodd" clip-rule="evenodd" d="M30.38 24.4272C30.5246 23.6859 31.2427 23.2022 31.9841 23.3469C35.3493 24.0032 37.7782 26.9515 37.7782 30.3804V31.331C37.7782 32.1726 37.5257 33.3713 36.4278 34.073C35.6886 34.5455 34.5424 35.049 32.7748 35.4065C32.0345 35.5564 31.3131 35.0776 31.1633 34.3374C31.0136 33.5971 31.4922 32.8757 32.2324 32.7258C33.7404 32.4208 34.5554 32.024 34.9548 31.7687L34.958 31.7655C34.961 31.7617 34.9717 31.7473 34.9848 31.7152C35.014 31.6444 35.0432 31.5175 35.0432 31.331V30.3804C35.0432 28.2603 33.5413 26.4372 31.4605 26.0313C30.7192 25.8866 30.2355 25.1686 30.38 24.4272Z" fill="#6C63FF"/>
</svg>
