<svg width="40" height="40" viewBox="0 0 40 40" fill="none" xmlns="http://www.w3.org/2000/svg">
<path d="M0 20C0 8.95431 8.95431 0 20 0C31.0457 0 40 8.95431 40 20C40 31.0457 31.0457 40 20 40C8.95431 40 0 31.0457 0 20Z" fill="#FF8500" fill-opacity="0.2"/>
<path d="M32.6562 8H7.34375C6.72215 8 6.12601 8.28734 5.68647 8.7988C5.24693 9.31026 5 10.004 5 10.7273L5 29.2727C5 29.996 5.24693 30.6897 5.68647 31.2012C6.12601 31.7127 6.72215 32 7.34375 32H32.6562C33.2779 32 33.874 31.7127 34.3135 31.2012C34.7531 30.6897 35 29.996 35 29.2727V10.7273C35 10.004 34.7531 9.31026 34.3135 8.7988C33.874 8.28734 33.2779 8 32.6562 8ZM7.34375 10.7273H11.0938C11.0677 11.2664 10.9494 11.7941 10.7458 12.2794C10.5423 12.7646 10.2575 13.1978 9.90829 13.5534C9.55905 13.909 9.15233 14.1799 8.71196 14.3502C8.2716 14.5206 7.80644 14.587 7.34375 14.5455V10.7273ZM7.34375 29.2727V25.4545C7.80644 25.413 8.2716 25.4794 8.71196 25.6498C9.15233 25.8201 9.55905 26.091 9.90829 26.4466C10.2575 26.8022 10.5423 27.2354 10.7458 27.7206C10.9494 28.2059 11.0677 28.7336 11.0938 29.2727H7.34375ZM32.6562 29.2727H29C29.0533 28.2037 29.4675 27.2026 30.1523 26.4874C30.8372 25.7722 31.7372 25.4009 32.6562 25.4545V29.2727ZM32.6562 22.7273C31.8928 22.6982 31.132 22.8444 30.4172 23.1577C29.7024 23.4709 29.0476 23.9451 28.4904 24.553C27.9332 25.1608 27.4844 25.8906 27.1697 26.7004C26.8549 27.5103 26.6805 28.3844 26.6562 29.2727H13.3438C13.3195 28.3844 13.1451 27.5103 12.8303 26.7004C12.5156 25.8906 12.0668 25.1608 11.5096 24.553C10.9524 23.9451 10.2976 23.4709 9.58281 23.1577C8.86801 22.8444 8.10716 22.6982 7.34375 22.7273V17.2727C8.10716 17.3018 8.86801 17.1556 9.58281 16.8423C10.2976 16.5291 10.9524 16.0549 11.5096 15.447C12.0668 14.8392 12.5156 14.1094 12.8303 13.2996C13.1451 12.4897 13.3195 11.6156 13.3438 10.7273H26.6562C26.6805 11.6156 26.8549 12.4897 27.1697 13.2996C27.4844 14.1094 27.9332 14.8392 28.4904 15.447C29.0476 16.0549 29.7024 16.5291 30.4172 16.8423C31.132 17.1556 31.8928 17.3018 32.6562 17.2727V22.7273ZM32.6562 14.5455C31.7372 14.5991 30.8372 14.2278 30.1523 13.5126C29.4675 12.7974 29.0533 11.7963 29 10.7273H32.6562V14.5455Z" fill="white"/>
<path d="M19.998 13.4548C19.2346 13.4257 18.4738 13.5719 17.759 13.8852C17.0442 14.1985 16.3894 14.6726 15.8322 15.2805C15.275 15.8884 14.8262 16.6181 14.5115 17.428C14.1967 18.2378 14.0223 19.1119 13.998 20.0003C14.0223 20.8886 14.1967 21.7627 14.5115 22.5726C14.8262 23.3824 15.275 24.1121 15.8322 24.72C16.3894 25.3279 17.0442 25.8021 17.759 26.1153C18.4738 26.4286 19.2346 26.5748 19.998 26.5457C20.7615 26.5748 21.5223 26.4286 22.2371 26.1153C22.9519 25.8021 23.6066 25.3279 24.1639 24.72C24.7211 24.1121 25.1699 23.3824 25.4846 22.5726C25.7994 21.7627 25.9738 20.8886 25.998 20.0003C25.9738 19.1119 25.7994 18.2378 25.4846 17.428C25.1699 16.6181 24.7211 15.8884 24.1639 15.2805C23.6066 14.6726 22.9519 14.1985 22.2371 13.8852C21.5223 13.5719 20.7615 13.4257 19.998 13.4548ZM19.998 23.8184C19.079 23.872 18.179 23.5008 17.4941 22.7856C16.8093 22.0704 16.3951 21.0693 16.3418 20.0003C16.3951 18.9313 16.8093 17.9301 17.4941 17.2149C18.179 16.4997 19.079 16.1285 19.998 16.1821C20.4607 16.1406 20.9259 16.2069 21.3663 16.3773C21.8066 16.5477 22.2133 16.8186 22.5626 17.1742C22.9118 17.5298 23.1966 17.9629 23.4001 18.4482C23.6037 18.9334 23.722 19.4611 23.748 20.0003C23.722 20.5394 23.6037 21.0671 23.4001 21.5524C23.1966 22.0376 22.9118 22.4708 22.5626 22.8264C22.2133 23.1819 21.8066 23.4529 21.3663 23.6232C20.9259 23.7936 20.4607 23.8599 19.998 23.8184Z" fill="white"/>
</svg>
