<svg width="40" height="40" viewBox="0 0 40 40" fill="none" xmlns="http://www.w3.org/2000/svg">
<path d="M0 3.33333C0 1.49238 1.49238 0 3.33333 0H36.6667C38.5076 0 40 1.49238 40 3.33333V36.6667C40 38.5076 38.5076 40 36.6667 40H3.33333C1.49238 40 0 38.5076 0 36.6667V3.33333Z" fill="#6C63FF" fill-opacity="0.1"/>
<path d="M27.9308 12.2225C25.8273 10.0726 23.0122 8.88843 20.0037 8.88843C16.9955 8.88843 14.1805 10.0726 12.0787 12.2207C10.0239 14.3058 8.89258 17.0684 8.89258 19.9995C8.89258 22.9307 10.0239 25.6933 12.0769 27.7766C14.1805 29.9265 16.9955 31.1107 20.0037 31.1107C23.0122 31.1107 25.8273 29.9265 27.929 27.7784C29.9834 25.6933 31.1148 22.9307 31.1148 19.9995C31.1148 17.0684 29.9834 14.3058 27.9308 12.2225ZM16.1641 11.1693C15.6575 11.8562 15.2131 12.674 14.8488 13.6044C14.446 13.3469 14.0604 13.0597 13.6952 12.7404C14.4424 12.0866 15.2725 11.5581 16.1641 11.1693ZM12.6562 13.7948C13.1929 14.272 13.7677 14.69 14.3746 15.0493C14.0234 16.3264 13.8068 17.7456 13.7527 19.2587H10.4098C10.5635 17.2365 11.3431 15.3405 12.6562 13.7948ZM10.4098 20.7403H13.7528C13.8069 22.2534 14.0234 23.6725 14.3746 24.9496C13.7677 25.309 13.1928 25.7271 12.6561 26.2043C11.3434 24.6596 10.5634 22.7632 10.4098 20.7403ZM13.6952 27.2587C14.0604 26.9392 14.4459 26.6522 14.8487 26.3946C15.213 27.325 15.6574 28.1428 16.1639 28.8296C15.2726 28.4407 14.4428 27.9124 13.6952 27.2587ZM19.2629 29.4962C18.0143 29.0861 16.9119 27.6694 16.1733 25.6834C17.1442 25.2613 18.1848 25.0065 19.2629 24.925V29.4962ZM19.2629 23.4435C18.0337 23.5239 16.843 23.7929 15.7313 24.2566C15.4578 23.176 15.2833 21.9886 15.2332 20.7403H19.263L19.2629 23.4435ZM19.2629 19.2588H15.2331C15.2832 18.0104 15.4578 16.8229 15.7313 15.7424C16.843 16.2061 18.0337 16.4751 19.2629 16.5555V19.2588H19.2629ZM19.2629 15.0741C18.1849 14.9925 17.1442 14.7377 16.1734 14.3157C16.912 12.3297 18.0144 10.9129 19.2629 10.5029V15.0741ZM29.5976 19.2588H26.2549C26.2009 17.7456 25.9842 16.3264 25.633 15.0494C26.2399 14.6899 26.8148 14.2719 27.3516 13.7948C28.664 15.3393 29.4439 17.2357 29.5976 19.2588ZM26.3124 12.7404C25.9472 13.0597 25.5616 13.3468 25.1589 13.6044C24.7945 12.674 24.35 11.8562 23.8435 11.1694C24.735 11.5582 25.5649 12.0866 26.3124 12.7404ZM20.7444 10.5028C21.9932 10.9129 23.0956 12.3295 23.8343 14.3156C22.8633 14.7377 21.8225 14.9925 20.7444 15.0741V10.5028ZM20.7444 16.5556C21.9737 16.4752 23.1644 16.2061 24.2764 15.7424C24.5499 16.823 24.7245 18.0104 24.7746 19.2589H20.7444V16.5556ZM20.7444 20.7403H24.7746C24.7245 21.9887 24.55 23.1762 24.2765 24.2567C23.1646 23.793 21.9738 23.524 20.7445 23.4436V20.7403H20.7444ZM20.7444 29.4962V24.925C21.8226 25.0064 22.8634 25.2613 23.8343 25.6834C23.0957 27.6695 21.9932 29.0862 20.7444 29.4962ZM23.8433 28.8299C24.35 28.143 24.7945 27.3251 25.1589 26.3946C25.5618 26.6521 25.9474 26.9392 26.3126 27.2587C25.5653 27.9125 24.7351 28.4411 23.8433 28.8299ZM27.3516 26.2042C26.8149 25.727 26.24 25.3089 25.633 24.9496C25.9842 23.6725 26.201 22.2534 26.2549 20.7403H29.5975C29.4439 22.7628 28.6644 24.6588 27.3516 26.2042Z" fill="#6C63FF"/>
<path d="M35.5185 19.2592C35.1396 11.2739 28.7265 4.86077 20.7412 4.48193V2.22217H19.2597V4.48193C11.2744 4.86077 4.86126 11.2739 4.48242 19.2592H2.22266V20.7407H4.48242C4.86126 28.726 11.2744 35.1391 19.2597 35.518V37.7777H20.7412V35.518C28.7265 35.1391 35.1396 28.726 35.5185 20.7407H37.7782V19.2592H35.5185ZM34.037 20.7407C33.6611 27.9091 27.9096 33.6606 20.7412 34.0365V32.5925H19.2597V34.0365C12.0913 33.6606 6.33977 27.9091 5.9639 20.7407H7.40784V19.2592H5.9639C6.33977 12.0908 12.0913 6.33928 19.2597 5.96342V7.40735H20.7412V5.96342C27.9096 6.33928 33.6611 12.0908 34.037 19.2592H32.593V20.7407H34.037Z" fill="#6C63FF"/>
</svg>
