<svg width="40" height="40" viewBox="0 0 40 40" fill="none" xmlns="http://www.w3.org/2000/svg">
<rect width="40" height="40" rx="20" fill="#FF8500" fill-opacity="0.2"/>
<path d="M22.6738 27.5141L24.0061 27.9627L27.5833 25.7637H25.5214L22.6738 27.5141Z" fill="white"/>
<path d="M21.7852 18.6133L25.4628 20.8739L26.795 20.4253L23.8471 18.6133H21.7852Z" fill="white"/>
<path d="M17.3212 27.5139L14.4741 25.7637H12.4121L15.989 27.9624L17.3212 27.5139Z" fill="white"/>
<path d="M18.2173 18.6133H16.1554L13.207 20.4256L14.5393 20.8742L18.2173 18.6133Z" fill="white"/>
<path d="M20.0015 8C18.3744 8 17.4739 8.71197 17.4905 10.0838C17.5142 11.9627 18.4598 13.1025 20.0015 13.0826C20.0015 13.0826 22.5117 13.1685 22.5117 10.0838C22.5117 8.71185 21.6635 8 20.0015 8Z" fill="white"/>
<path d="M24.4398 14.5081L21.9318 13.6638L21.3447 13.2459C21.1896 13.1352 20.9603 13.1434 20.8167 13.2642L20 13.9498L19.181 13.264C19.0371 13.1434 18.8082 13.1356 18.6533 13.246L18.066 13.6639L15.558 14.5082C14.7503 14.7798 14.7511 17.1948 14.6816 17.4165H25.3173C25.248 17.1954 25.2478 14.7795 24.4398 14.5081Z" fill="white"/>
<path d="M10.3218 20.4986C10.3218 20.4986 12.8319 20.5845 12.8319 17.4999C12.8319 16.128 11.9838 15.416 10.3218 15.416C8.69475 15.416 7.7942 16.128 7.81077 17.4999C7.83444 19.3788 8.78001 20.5186 10.3218 20.4986Z" fill="white"/>
<path d="M14.7582 21.9241L12.2502 21.0799L11.663 20.662C11.5078 20.5512 11.2786 20.5594 11.1349 20.6801L10.3184 21.3657L9.49934 20.6799C9.35549 20.5593 9.12659 20.5515 8.97169 20.6619L8.38435 21.0798L5.87634 21.9241C5.06862 22.1957 5.06944 24.6107 5 24.8324H15.6357C15.5665 24.6113 15.5662 22.1955 14.7582 21.9241Z" fill="white"/>
<path d="M29.6849 20.4986C29.6849 20.4986 32.1951 20.5845 32.1951 17.4999C32.1951 16.128 31.347 15.416 29.6849 15.416C28.0579 15.416 27.1573 16.128 27.1741 17.4999C27.1976 19.3788 28.1432 20.5186 29.6849 20.4986Z" fill="white"/>
<path d="M34.1234 21.9241L31.6154 21.0799L31.0282 20.662C30.8732 20.5512 30.6439 20.5594 30.5001 20.6801L29.6836 21.3657L28.8646 20.6799C28.7207 20.5593 28.4918 20.5515 28.3369 20.6619L27.7496 21.0798L25.2416 21.9241C24.4339 22.1957 24.4347 24.6106 24.3652 24.8324H35.0009C34.9316 24.6113 34.9313 22.1955 34.1234 21.9241Z" fill="white"/>
<path d="M20.0015 22.584C18.3744 22.584 17.4739 23.2959 17.4905 24.6678C17.5142 26.5468 18.4598 27.6865 20.0015 27.6666C20.0015 27.6666 22.5117 27.7525 22.5117 24.6678C22.5117 23.2959 21.6635 22.584 20.0015 22.584Z" fill="white"/>
<path d="M24.4398 29.0921L21.9318 28.2478L21.3447 27.8299C21.1896 27.7192 20.9603 27.7274 20.8167 27.8481L20 28.5337L19.181 27.848C19.0371 27.7273 18.8082 27.7196 18.6533 27.83L18.066 28.2478L15.558 29.0922C14.7503 29.3638 14.7511 31.7787 14.6816 32.0004H25.3173C25.248 31.7794 25.2478 29.3634 24.4398 29.0921Z" fill="white"/>
</svg>
