<svg width="20" height="20" viewBox="0 0 20 20" fill="none" xmlns="http://www.w3.org/2000/svg">
<path fill-rule="evenodd" clip-rule="evenodd" d="M4.98693 5.03099C2.42928 5.2976 0.381393 7.09135 0.0476645 9.35729C-0.198924 11.0316 0.523339 12.7264 1.93428 13.7841C2.80477 14.4366 3.78552 14.8258 4.88513 14.9551C6.66558 15.1645 8.45434 14.6244 9.70948 13.4986C10.128 13.1232 10.4409 12.7339 10.7067 12.2577C11.0901 11.571 11.2266 11.0693 11.3004 10.0756C11.3519 9.38157 11.3966 9.17914 11.5851 8.78459C11.971 7.97746 12.7213 7.38925 13.6309 7.18079C14.0015 7.09583 14.5864 7.09508 14.9805 7.17903C16.1599 7.43028 17.0732 8.34998 17.2802 9.49477C17.5574 11.0279 16.5472 12.4868 14.9767 12.8213C14.5805 12.9058 14.0042 12.9047 13.6309 12.819C12.833 12.6356 12.1661 12.1711 11.7417 11.5031L11.599 11.2784L11.4898 11.5773C11.2753 12.1642 10.8387 12.8529 10.4166 13.27L10.2204 13.4639L10.4841 13.687C10.8063 13.9596 11.392 14.314 11.8232 14.4972C13.9973 15.4208 16.5758 15.05 18.3026 13.5653C19.206 12.7886 19.8224 11.6666 19.9211 10.6192C19.9329 10.4941 19.9555 10.3846 19.9713 10.3758C19.9871 10.3671 20 10.1826 20 9.9659C20 9.7492 19.987 9.57914 19.971 9.58799C19.955 9.59681 19.9319 9.49562 19.9196 9.36311C19.891 9.05545 19.738 8.51155 19.5776 8.14719C19.2948 7.50472 18.9238 7.00112 18.3628 6.49789C17.1073 5.3718 15.3404 4.83611 13.5688 5.04444C11.1979 5.32322 9.28922 6.89577 8.78314 8.98726C8.73857 9.17144 8.69809 9.49262 8.67846 9.81794C8.64301 10.4051 8.60977 10.6176 8.50806 10.9068C8.16812 11.8736 7.36155 12.5825 6.33256 12.819C5.95926 12.9047 5.38297 12.9058 4.98673 12.8213C3.41624 12.4868 2.406 11.0279 2.6832 9.49477C2.89049 8.34846 3.80197 7.43062 4.98295 7.17903C5.37705 7.09508 5.9619 7.09583 6.33256 7.18079C6.96312 7.3253 7.54273 7.6645 7.94052 8.12188C8.11048 8.31727 8.12541 8.32728 8.15268 8.26427C8.16883 8.22699 8.27891 8.01917 8.39737 7.80246C8.63906 7.36021 8.92826 6.98185 9.30456 6.61545L9.55875 6.36796L9.3842 6.22721C8.93262 5.863 8.1098 5.45024 7.44971 5.25678C6.68298 5.03208 5.77508 4.94882 4.98693 5.03099ZM0.0104634 9.99979C0.0104634 10.2248 0.0157682 10.3169 0.0222894 10.2044C0.0287768 10.0918 0.0287768 9.90774 0.0222894 9.79521C0.0157682 9.68268 0.0104634 9.77475 0.0104634 9.99979Z" fill="#6C63FF"/>
</svg>
