<svg width="34" height="34" viewBox="0 0 34 34" fill="none" xmlns="http://www.w3.org/2000/svg">
<path opacity="0.1" fill-rule="evenodd" clip-rule="evenodd" d="M17 33C25.8366 33 33 25.8366 33 17C33 8.16344 25.8366 1 17 1C8.16344 1 1 8.16344 1 17C1 25.8366 8.16344 33 17 33Z" stroke="white" stroke-width="1.5"/>
<g clip-path="url(#clip0_1177_709)">
<path fill-rule="evenodd" clip-rule="evenodd" d="M17 21.5C19.4853 21.5 21.5 19.4853 21.5 17C21.5 14.5147 19.4853 12.5 17 12.5C14.5147 12.5 12.5 14.5147 12.5 17C12.5 19.4853 14.5147 21.5 17 21.5ZM17 20C18.6568 20 20 18.6568 20 17C20 15.3431 18.6568 14 17 14C15.3431 14 14 15.3431 14 17C14 18.6568 15.3431 20 17 20Z" fill="white"/>
<path d="M21.5 11.75C21.0858 11.75 20.75 12.0858 20.75 12.5C20.75 12.9142 21.0858 13.25 21.5 13.25C21.9142 13.25 22.25 12.9142 22.25 12.5C22.25 12.0858 21.9142 11.75 21.5 11.75Z" fill="white"/>
<path fill-rule="evenodd" clip-rule="evenodd" d="M9.24047 11.207C8.75 12.1696 8.75 13.4298 8.75 15.95V18.05C8.75 20.5702 8.75 21.8304 9.24047 22.7929C9.6719 23.6397 10.3603 24.3281 11.207 24.7595C12.1696 25.25 13.4298 25.25 15.95 25.25H18.05C20.5702 25.25 21.8304 25.25 22.7929 24.7595C23.6397 24.3281 24.3281 23.6397 24.7595 22.7929C25.25 21.8304 25.25 20.5702 25.25 18.05V15.95C25.25 13.4298 25.25 12.1696 24.7595 11.207C24.3281 10.3603 23.6397 9.6719 22.7929 9.24047C21.8304 8.75 20.5702 8.75 18.05 8.75H15.95C13.4298 8.75 12.1696 8.75 11.207 9.24047C10.3603 9.6719 9.6719 10.3603 9.24047 11.207ZM18.05 10.25H15.95C14.6651 10.25 13.7917 10.2512 13.1166 10.3063C12.4589 10.3601 12.1226 10.4574 11.888 10.577C11.3235 10.8646 10.8646 11.3235 10.577 11.888C10.4574 12.1226 10.3601 12.4589 10.3063 13.1166C10.2512 13.7917 10.25 14.6651 10.25 15.95V18.05C10.25 19.3349 10.2512 20.2083 10.3063 20.8834C10.3601 21.5411 10.4574 21.8774 10.577 22.112C10.8646 22.6764 11.3235 23.1354 11.888 23.423C12.1226 23.5425 12.4589 23.64 13.1166 23.6937C13.7917 23.7488 14.6651 23.75 15.95 23.75H18.05C19.3349 23.75 20.2083 23.7488 20.8834 23.6937C21.5411 23.64 21.8774 23.5425 22.112 23.423C22.6764 23.1354 23.1354 22.6764 23.423 22.112C23.5425 21.8774 23.64 21.5411 23.6937 20.8834C23.7488 20.2083 23.75 19.3349 23.75 18.05V15.95C23.75 14.6651 23.7488 13.7917 23.6937 13.1166C23.64 12.4589 23.5425 12.1226 23.423 11.888C23.1354 11.3235 22.6764 10.8646 22.112 10.577C21.8774 10.4574 21.5411 10.3601 20.8834 10.3063C20.2083 10.2512 19.3349 10.25 18.05 10.25Z" fill="white"/>
</g>
<defs>
<clipPath id="clip0_1177_709">
<rect width="18" height="18" fill="white" transform="translate(8 8)"/>
</clipPath>
</defs>
</svg>
