<svg width="32" height="32" viewBox="0 0 32 32" fill="none" xmlns="http://www.w3.org/2000/svg">
<rect x="0.75" y="0.75" width="30.5" height="30.5" rx="15.25" stroke="white" stroke-opacity="0.1" stroke-width="1.5"/>
<g clip-path="url(#clip0_1_2311)">
<path fill-rule="evenodd" clip-rule="evenodd" d="M16 20.5C18.4853 20.5 20.5 18.4853 20.5 16C20.5 13.5147 18.4853 11.5 16 11.5C13.5147 11.5 11.5 13.5147 11.5 16C11.5 18.4853 13.5147 20.5 16 20.5ZM16 19C17.6568 19 19 17.6568 19 16C19 14.3431 17.6568 13 16 13C14.3431 13 13 14.3431 13 16C13 17.6568 14.3431 19 16 19Z" fill="white"/>
<path d="M20.5 10.75C20.0858 10.75 19.75 11.0858 19.75 11.5C19.75 11.9142 20.0858 12.25 20.5 12.25C20.9142 12.25 21.25 11.9142 21.25 11.5C21.25 11.0858 20.9142 10.75 20.5 10.75Z" fill="white"/>
<path fill-rule="evenodd" clip-rule="evenodd" d="M8.24047 10.207C7.75 11.1696 7.75 12.4298 7.75 14.95V17.05C7.75 19.5702 7.75 20.8304 8.24047 21.7929C8.6719 22.6397 9.36031 23.3281 10.207 23.7595C11.1696 24.25 12.4298 24.25 14.95 24.25H17.05C19.5702 24.25 20.8304 24.25 21.7929 23.7595C22.6397 23.3281 23.3281 22.6397 23.7595 21.7929C24.25 20.8304 24.25 19.5702 24.25 17.05V14.95C24.25 12.4298 24.25 11.1696 23.7595 10.207C23.3281 9.36031 22.6397 8.6719 21.7929 8.24047C20.8304 7.75 19.5702 7.75 17.05 7.75H14.95C12.4298 7.75 11.1696 7.75 10.207 8.24047C9.36031 8.6719 8.6719 9.36031 8.24047 10.207ZM17.05 9.25H14.95C13.6651 9.25 12.7917 9.25117 12.1166 9.30632C11.4589 9.36005 11.1226 9.45744 10.888 9.57698C10.3235 9.8646 9.8646 10.3235 9.57698 10.888C9.45744 11.1226 9.36005 11.4589 9.30632 12.1166C9.25117 12.7917 9.25 13.6651 9.25 14.95V17.05C9.25 18.3349 9.25117 19.2083 9.30632 19.8834C9.36005 20.5411 9.45744 20.8774 9.57698 21.112C9.8646 21.6764 10.3235 22.1354 10.888 22.423C11.1226 22.5425 11.4589 22.64 12.1166 22.6937C12.7917 22.7488 13.6651 22.75 14.95 22.75H17.05C18.3349 22.75 19.2083 22.7488 19.8834 22.6937C20.5411 22.64 20.8774 22.5425 21.112 22.423C21.6764 22.1354 22.1354 21.6764 22.423 21.112C22.5425 20.8774 22.64 20.5411 22.6937 19.8834C22.7488 19.2083 22.75 18.3349 22.75 17.05V14.95C22.75 13.6651 22.7488 12.7917 22.6937 12.1166C22.64 11.4589 22.5425 11.1226 22.423 10.888C22.1354 10.3235 21.6764 9.8646 21.112 9.57698C20.8774 9.45744 20.5411 9.36005 19.8834 9.30632C19.2083 9.25117 18.3349 9.25 17.05 9.25Z" fill="white"/>
</g>
<defs>
<clipPath id="clip0_1_2311">
<rect width="18" height="18" fill="white" transform="translate(7 7)"/>
</clipPath>
</defs>
</svg>
