<svg width="34" height="34" viewBox="0 0 34 34" fill="none" xmlns="http://www.w3.org/2000/svg">
<path opacity="0.1" fill-rule="evenodd" clip-rule="evenodd" d="M17 33C25.8366 33 33 25.8366 33 17C33 8.16344 25.8366 1 17 1C8.16344 1 1 8.16344 1 17C1 25.8366 8.16344 33 17 33Z" stroke="white" stroke-width="1.5"/>
<path d="M12.8617 14.2865C13.6234 14.2865 14.241 13.6792 14.241 12.9301C14.241 12.181 13.6234 11.5737 12.8617 11.5737C12.0999 11.5737 11.4824 12.181 11.4824 12.9301C11.4824 13.6792 12.0999 14.2865 12.8617 14.2865Z" fill="white"/>
<path d="M14.0111 15.1924H11.7123C11.5854 15.1924 11.4824 15.2937 11.4824 15.4184V22.2004C11.4824 22.3252 11.5854 22.4265 11.7123 22.4265H14.0111C14.138 22.4265 14.241 22.3252 14.241 22.2004V15.4184C14.241 15.2937 14.138 15.1924 14.0111 15.1924Z" fill="white"/>
<path d="M20.8617 14.8164C19.8792 14.4855 18.6503 14.7762 17.9133 15.2975C17.888 15.2003 17.7979 15.1279 17.6908 15.1279H15.392C15.2651 15.1279 15.1621 15.2292 15.1621 15.354V22.1359C15.1621 22.2607 15.2651 22.362 15.392 22.362H17.6908C17.8177 22.362 17.9207 22.2607 17.9207 22.1359V17.262C18.2921 16.9473 18.7708 16.8469 19.1625 17.0106C19.5422 17.1684 19.7597 17.5536 19.7597 18.0668V22.1359C19.7597 22.2607 19.8627 22.362 19.9896 22.362H22.2884C22.4153 22.362 22.5182 22.2607 22.5182 22.1359V17.6115C22.492 15.7537 21.6033 15.066 20.8617 14.8164Z" fill="white"/>
</svg>
