<svg width="32" height="32" viewBox="0 0 32 32" fill="none" xmlns="http://www.w3.org/2000/svg">
<rect x="0.75" y="0.75" width="30.5" height="30.5" rx="15.25" stroke="white" stroke-opacity="0.1" stroke-width="1.5"/>
<path d="M11.8617 13.287C12.6234 13.287 13.241 12.6797 13.241 11.9306C13.241 11.1815 12.6234 10.5742 11.8617 10.5742C11.0999 10.5742 10.4824 11.1815 10.4824 11.9306C10.4824 12.6797 11.0999 13.287 11.8617 13.287Z" fill="white"/>
<path d="M13.0111 14.1934H10.7123C10.5854 14.1934 10.4824 14.2946 10.4824 14.4194V21.2014C10.4824 21.3262 10.5854 21.4274 10.7123 21.4274H13.0111C13.138 21.4274 13.241 21.3262 13.241 21.2014V14.4194C13.241 14.2946 13.138 14.1934 13.0111 14.1934Z" fill="white"/>
<path d="M19.8617 13.8164C18.8792 13.4855 17.6503 13.7762 16.9133 14.2975C16.888 14.2003 16.7979 14.1279 16.6908 14.1279H14.392C14.2651 14.1279 14.1621 14.2292 14.1621 14.354V21.1359C14.1621 21.2607 14.2651 21.362 14.392 21.362H16.6908C16.8177 21.362 16.9207 21.2607 16.9207 21.1359V16.262C17.2921 15.9473 17.7708 15.8469 18.1625 16.0106C18.5422 16.1684 18.7597 16.5536 18.7597 17.0668V21.1359C18.7597 21.2607 18.8627 21.362 18.9896 21.362H21.2884C21.4153 21.362 21.5182 21.2607 21.5182 21.1359V16.6115C21.492 14.7537 20.6033 14.066 19.8617 13.8164Z" fill="white"/>
</svg>
