<svg width="32" height="32" viewBox="0 0 32 32" fill="none" xmlns="http://www.w3.org/2000/svg">
<rect x="0.75" y="0.75" width="30.5" height="30.5" rx="15.25" stroke="white" stroke-opacity="0.1" stroke-width="1.5"/>
<path d="M16.244 8C16.778 8.003 18.114 8.016 19.534 8.073L20.038 8.095C21.467 8.162 22.895 8.278 23.604 8.475C24.549 8.741 25.291 9.515 25.542 10.497C25.942 12.057 25.992 15.099 25.998 15.836L25.999 15.988V16.162C25.992 16.899 25.942 19.942 25.542 21.501C25.288 22.486 24.545 23.261 23.604 23.523C22.895 23.72 21.467 23.836 20.038 23.903L19.534 23.926C18.114 23.982 16.778 23.996 16.244 23.998L16.009 23.999H15.754C14.624 23.992 9.898 23.941 8.394 23.523C7.45 23.257 6.707 22.483 6.456 21.501C6.056 19.941 6.006 16.899 6 16.162V15.836C6.006 15.099 6.056 12.056 6.456 10.497C6.71 9.512 7.453 8.737 8.395 8.476C9.898 8.057 14.625 8.006 15.755 8H16.244ZM13.999 12.5V19.5L19.999 16L13.999 12.5Z" fill="white"/>
</svg>
